<svg xmlns="http://www.w3.org/2000/svg" width="440" height="200" viewBox="0 0 440 200" role="img" aria-label="Most used languages">
<style>.t{font:600 16px 'Segoe UI',Ubuntu,Sans-Serif}.l{font:400 13px 'Segoe UI',Ubuntu,Sans-Serif}.v{font:600 13px 'Segoe UI',Ubuntu,Sans-Serif}.s{font:400 11px 'Segoe UI',Ubuntu,Sans-Serif}.p{font:600 12px 'Segoe UI',Ubuntu,Sans-Serif}</style>
<rect x="0.5" y="0.5" width="439" height="199" rx="10" fill="#ffffff" stroke="#d0d7de"/>
<text class="t" x="25" y="33" fill="#7c3aed">Most used languages</text>
<clipPath id="bar"><rect x="25" y="58" width="390" height="10" rx="5"/></clipPath><g clip-path="url(#bar)">
<rect x="25.00" y="58" width="282.73" height="10" fill="#3572A5"/>
<rect x="307.73" y="58" width="47.09" height="10" fill="#3178c6"/>
<rect x="354.82" y="58" width="43.38" height="10" fill="#f1e05a"/>
<rect x="398.20" y="58" width="9.52" height="10" fill="#e34c26"/>
<rect x="407.72" y="58" width="2.78" height="10" fill="#563d7c"/>
<rect x="410.50" y="58" width="2.35" height="10" fill="#427819"/>
</g>
<circle cx="30" cy="96" r="5" fill="#3572A5"/>
<text class="l" x="43" y="100" fill="#1f2328">Python</text>
<text class="s" x="205" y="100" text-anchor="end" fill="#8c959f">72.5%</text>
<circle cx="235" cy="96" r="5" fill="#3178c6"/>
<text class="l" x="248" y="100" fill="#1f2328">TypeScript</text>
<text class="s" x="410" y="100" text-anchor="end" fill="#8c959f">12.1%</text>
<circle cx="30" cy="122" r="5" fill="#f1e05a"/>
<text class="l" x="43" y="126" fill="#1f2328">JavaScript</text>
<text class="s" x="205" y="126" text-anchor="end" fill="#8c959f">11.1%</text>
<circle cx="235" cy="122" r="5" fill="#e34c26"/>
<text class="l" x="248" y="126" fill="#1f2328">HTML</text>
<text class="s" x="410" y="126" text-anchor="end" fill="#8c959f">2.4%</text>
<circle cx="30" cy="148" r="5" fill="#563d7c"/>
<text class="l" x="43" y="152" fill="#1f2328">CSS</text>
<text class="s" x="205" y="152" text-anchor="end" fill="#8c959f">0.7%</text>
<circle cx="235" cy="148" r="5" fill="#427819"/>
<text class="l" x="248" y="152" fill="#1f2328">Makefile</text>
<text class="s" x="410" y="152" text-anchor="end" fill="#8c959f">0.6%</text>
</svg>